<svg id="Camada_1" data-name="Camada 1" xmlns="http://www.w3.org/2000/svg" viewBox="0 0 345.45 345.45"><defs><style>.cls-1{fill:#a780ee;}</style></defs><path class="cls-1" d="M345.45,157.08c0-8.9-.81-15.1-2.16-18.6H309a16.73,16.73,0,0,1,.54,4.85c0,6.74-4.31,9.17-14.29,9.17H221.17l60.72-60.72C300,73.66,300.58,56.31,283.8,39.53c-6.3-6.29-11.25-10.11-14.68-11.63L244.9,52.11a17,17,0,0,1,3.81,3.06c4.77,4.76,3.43,9.53-3.62,16.58l-52.41,52.41V38.29C192.68,12.67,180.81,0,157.08,0c-8.9,0-15.1.81-18.6,2.16V36.4a17.22,17.22,0,0,1,4.85-.53c6.74,0,9.17,4.31,9.17,14.29v74.12L91.78,63.56C73.66,45.44,56.31,44.87,39.53,61.65,33.24,67.94,29.42,72.9,27.9,76.33l24.22,24.22a16.61,16.61,0,0,1,3.05-3.81c4.76-4.77,9.53-3.44,16.59,3.62l52.4,52.41H38.29C12.67,152.77,0,164.63,0,188.36c0,8.9.81,15.11,2.16,18.61H36.41a16.84,16.84,0,0,1-.54-4.85c0-6.75,4.31-9.17,14.29-9.17h74.12L63.56,253.67c-18.12,18.11-18.69,35.47-1.91,52.25,6.29,6.29,11.25,10.1,14.68,11.63l24.22-24.22a16.61,16.61,0,0,1-3.81-3.05c-4.77-4.77-3.44-9.53,3.62-16.59l52.41-52.41v85.87c0,25.62,11.86,38.3,35.6,38.3,8.9,0,15.1-.81,18.6-2.16V309a16.84,16.84,0,0,1-4.85.54c-6.74,0-9.17-4.31-9.17-14.29V221.17l60.72,60.72c18.11,18.12,35.47,18.69,52.25,1.91,6.29-6.3,10.1-11.25,11.63-14.69L293.33,244.9a16.83,16.83,0,0,1-3.05,3.81c-4.77,4.77-9.53,3.43-16.59-3.62l-52.41-52.41h85.87C332.77,192.68,345.45,180.81,345.45,157.08ZM172.72,201.2l-28.48-28.48,28.48-28.48,28.48,28.48Z"/></svg>