<?xml version="1.0" encoding="utf-8"?>
<!-- Generator: Adobe Illustrator 25.2.1, SVG Export Plug-In . SVG Version: 6.00 Build 0)  -->
<svg version="1.1" xmlns="http://www.w3.org/2000/svg" xmlns:xlink="http://www.w3.org/1999/xlink" x="0px" y="0px"
	 viewBox="0 0 532.64 532.64" style="enable-background:new 0 0 532.64 532.64;" xml:space="preserve">
<style type="text/css">
	.st0{fill:#F3F3F3;}
	.st1{fill:#FFFFFF;}
	.st2{fill:#A780EE;}
	.st3{fill:#030303;}
	.st4{fill:#FFFFFF;stroke:#1A1A18;stroke-width:4;stroke-miterlimit:10;}
	.st5{opacity:0.2;clip-path:url(#SVGID_2_);fill:#030303;}
	.st6{clip-path:url(#SVGID_2_);fill:#FFFFFF;}
	.st7{clip-path:url(#SVGID_2_);fill:#A780EE;}
	.st8{fill:#0E2F56;}
	.st9{display:none;opacity:0.5;}
	.st10{display:inline;}
	.st11{fill:#FFFFFF;stroke:#5E5E5E;stroke-miterlimit:10;}
	.st12{opacity:0.1;fill:#FFFFFF;stroke:#5E5E5E;stroke-miterlimit:10;enable-background:new    ;}
	.st13{fill:#5E5E5E;}
	.st14{opacity:0.05;clip-path:url(#SVGID_4_);}
	.st15{opacity:0.15;clip-path:url(#SVGID_6_);}
	.st16{opacity:0.15;clip-path:url(#SVGID_8_);}
	.st17{display:none;opacity:0.2;}
	.st18{opacity:0.07;}
	.st19{opacity:0.15;}
	.st20{fill:#455A64;}
	.st21{opacity:0.5;clip-path:url(#SVGID_10_);}
	.st22{opacity:0.5;clip-path:url(#SVGID_12_);}
	.st23{opacity:0.3;clip-path:url(#SVGID_14_);}
	.st24{opacity:0.3;clip-path:url(#SVGID_16_);}
	.st25{opacity:0.3;clip-path:url(#SVGID_18_);}
	.st26{opacity:0.3;clip-path:url(#SVGID_20_);}
	.st27{opacity:0.1;enable-background:new    ;}
	.st28{fill:#E2E2E2;}
	.st29{opacity:0.3;clip-path:url(#SVGID_22_);}
	.st30{opacity:0.25;clip-path:url(#SVGID_24_);}
	.st31{opacity:0.3;enable-background:new    ;}
	.st32{opacity:0.25;clip-path:url(#SVGID_26_);}
	.st33{fill:#3F3F3F;}
	.st34{opacity:0.25;clip-path:url(#SVGID_28_);}
	.st35{display:none;fill:#E48181;}
	.st36{display:none;opacity:0.3;enable-background:new    ;}
	.st37{opacity:0.25;clip-path:url(#SVGID_30_);}
	.st38{fill:#0083E4;}
	.st39{opacity:0.3;clip-path:url(#SVGID_32_);}
	.st40{fill:#A880EF;}
	.st41{clip-path:url(#SVGID_34_);}
	.st42{clip-path:url(#SVGID_36_);}
	.st43{display:none;clip-path:url(#SVGID_36_);fill:url(#SVGID_37_);}
	.st44{fill:#FFFFFF;stroke:#A780EE;stroke-width:2;stroke-miterlimit:10;}
	.st45{fill:none;stroke:#A780EE;stroke-width:7;stroke-miterlimit:10;}
	.st46{display:none;fill:#F3F3F3;}
	.st47{fill:none;stroke:#0E2F56;stroke-width:5.5;stroke-linecap:round;stroke-miterlimit:10;}
	.st48{fill:none;stroke:#0E2F56;stroke-width:5.5;stroke-miterlimit:10;}
	.st49{display:none;fill:none;stroke:#0E2F56;stroke-width:5.5;stroke-miterlimit:10;}
	.st50{fill-rule:evenodd;clip-rule:evenodd;fill:#FFFFFF;}
	.st51{fill:#F2F2F2;}
	.st52{clip-path:url(#SVGID_39_);}
	.st53{opacity:0.25;fill:none;stroke:#000000;stroke-width:15;stroke-linecap:round;stroke-miterlimit:10;}
	.st54{fill:#151515;}
	.st55{opacity:0.25;fill:none;stroke:#000000;stroke-miterlimit:10;}
	.st56{clip-path:url(#SVGID_41_);}
	.st57{clip-path:url(#SVGID_43_);}
	.st58{clip-path:url(#SVGID_45_);}
	.st59{clip-path:url(#SVGID_47_);}
	.st60{opacity:0.25;fill:none;stroke:#404040;stroke-miterlimit:10;}
	.st61{fill:#404040;}
	.st62{opacity:0.5;fill:none;stroke:#DDDDDD;stroke-miterlimit:10;}
	.st63{opacity:0.75;}
	.st64{fill:#66CF80;}
	.st65{clip-path:url(#SVGID_49_);}
	.st66{display:none;clip-path:url(#SVGID_49_);fill:url(#SVGID_50_);}
	.st67{clip-path:url(#SVGID_52_);}
	.st68{clip-path:url(#SVGID_54_);}
	.st69{clip-path:url(#SVGID_60_);}
	.st70{display:none;clip-path:url(#SVGID_60_);fill:url(#SVGID_61_);}
	.st71{fill:none;stroke:#A880EF;stroke-width:2;stroke-miterlimit:10;}
	.st72{opacity:0.25;fill:none;stroke:#565656;stroke-miterlimit:10;}
	.st73{opacity:0.15;fill:#565656;}
	.st74{opacity:0.5;}
	.st75{opacity:0.15;fill:none;stroke:#565656;stroke-width:2;stroke-miterlimit:10;}
	.st76{clip-path:url(#SVGID_63_);}
	.st77{opacity:0.85;}
	.st78{fill:#565656;}
	.st79{clip-path:url(#SVGID_65_);}
	.st80{fill:none;stroke:#FFFFFF;stroke-width:1.5;stroke-miterlimit:10;}
	.st81{fill:#29D34B;}
	.st82{opacity:0.2;clip-path:url(#SVGID_67_);fill:#030303;}
	.st83{clip-path:url(#SVGID_67_);fill:#FFFFFF;}
	.st84{clip-path:url(#SVGID_67_);fill:#A780EE;}
	.st85{clip-path:url(#SVGID_69_);}
	.st86{clip-path:url(#SVGID_73_);}
	.st87{fill:none;stroke:#FFFFFF;stroke-miterlimit:10;}
	.st88{fill:#1A3054;}
	.st89{fill:#A0CC3A;}
	.st90{fill:none;stroke:#A780EE;stroke-width:2.7;stroke-linecap:round;stroke-linejoin:round;stroke-miterlimit:10;}
	.st91{fill:#1A1528;}
	.st92{clip-path:url(#SVGID_75_);}
	.st93{opacity:0.2;clip-path:url(#SVGID_77_);fill:#030303;}
	.st94{clip-path:url(#SVGID_77_);fill:#FFFFFF;}
	.st95{clip-path:url(#SVGID_77_);fill:#A780EE;}
	.st96{opacity:0.2;clip-path:url(#SVGID_79_);fill:#030303;}
	.st97{clip-path:url(#SVGID_79_);fill:#FFFFFF;}
	.st98{clip-path:url(#SVGID_79_);fill:#FF802C;}
	.st99{opacity:0.2;clip-path:url(#SVGID_81_);fill:#030303;}
	.st100{clip-path:url(#SVGID_81_);fill:#FFFFFF;}
	.st101{clip-path:url(#SVGID_81_);fill:#75E095;}
	.st102{opacity:0.2;clip-path:url(#SVGID_83_);fill:#030303;}
	.st103{clip-path:url(#SVGID_83_);fill:#FFFFFF;}
	.st104{clip-path:url(#SVGID_83_);fill:#187FE2;}
	.st105{opacity:0.2;clip-path:url(#SVGID_85_);fill:#030303;}
	.st106{clip-path:url(#SVGID_85_);fill:#0E2F56;}
	.st107{display:none;}
</style>
<g id="Camada_1">
	<g>
		<path class="st2" d="M255.32,215.72c-1.34-3.47-2.03-7.13-2.03-10.89c0-16.57,13.48-30.05,30.05-30.05s30.05,13.48,30.05,30.05
			c0,4.69-1.05,9.17-3.1,13.33l7.7,3.82c2.65-5.36,4-11.13,4-17.15c0-21.31-17.34-38.65-38.65-38.65
			c-21.31,0-38.65,17.34-38.65,38.65c0,4.83,0.88,9.54,2.62,14.01L255.32,215.72z M219.18,263.88c-4.43,0-8.03,3.34-8.03,7.47
			c0,4.12,3.59,7.46,8.03,7.46s8.03-3.34,8.03-7.46C227.2,267.22,223.61,263.88,219.18,263.88z M275.54,220.71
			c-15.26,0-31,3.77-44.34,10.62l-1.46,0.75c-8.37-6.43-19.49-9.9-26-9.9c-3.37,0-5.81,0.92-7.27,2.74
			c-3.21,4-0.68,10.47,6.91,23.77c-5.33,4.31-9.71,9.79-12.82,16.1c-3.36,1.26-7.49,1.85-12.84,1.85l-0.55,0
			c-2.72,0-5.04,1.37-6.54,3.87c-4.05,6.73-1.36,21.82,3.59,31.15c3.54,6.68,17.05,16.89,42.5,32.12c0.09,0.06,0.19,0.11,0.28,0.17
			v32.52h26.53l6.9-16.13c8.12,2.12,16.56,3.2,25.13,3.2c10.66,0,23.96-1.64,33.88-4.11l6.48,17.05h24.78l4.74-37.26
			c11.99-11.85,18.58-26.73,18.58-42.08C364.01,251.74,322.66,220.71,275.54,220.71L275.54,220.71z M338.39,324.04l-1.12,1.06
			l-4.17,32.77h-11.27l-7.18-18.89l-3.83,1.15c-9.4,2.83-23.9,4.8-35.28,4.8c-9.04,0-17.91-1.3-26.35-3.87l-3.69-1.12l-7.68,17.93
			h-12.25l0-28.44l-1.66-1.29c-0.17-0.13-1.17-0.77-2.8-1.74c-30.67-18.35-37.8-25.9-39.32-28.77c-4.48-8.46-5.34-19.57-4-22.39
			c7.36-0.01,12.99-1.03,17.73-3.21l1.46-0.67l0.66-1.47c3.05-6.77,7.81-12.46,13.76-16.46l3.35-2.25l-2.03-3.49
			c-2.15-3.68-7.34-12.62-8.7-16.91c6.72,0.16,20.14,5.47,25.68,13.42l8,11.48l-0.21-17.87c11.62-5.5,25.02-8.51,38.04-8.51
			c42.54,0,79.87,27.01,79.87,57.81C355.4,300.56,349.36,313.67,338.39,324.04L338.39,324.04z"/>
	</g>
	<g>
		<path class="st2" d="M266.32,532.64C119.47,532.64,0,413.17,0,266.32S119.47,0,266.32,0s266.33,119.47,266.33,266.32
			S413.17,532.64,266.32,532.64z M266.32,12.45c-139.98,0-253.87,113.89-253.87,253.87c0,139.99,113.89,253.88,253.87,253.88
			c139.99,0,253.88-113.89,253.88-253.88C520.2,126.34,406.31,12.45,266.32,12.45z"/>
	</g>
</g>
<g id="Camada_3">
</g>
<g id="Camada_2" class="st107">
</g>
</svg>
