<?xml version="1.0" encoding="utf-8"?>
<!-- Generator: Adobe Illustrator 25.2.1, SVG Export Plug-In . SVG Version: 6.00 Build 0)  -->
<svg version="1.1" xmlns="http://www.w3.org/2000/svg" xmlns:xlink="http://www.w3.org/1999/xlink" x="0px" y="0px"
	 viewBox="0 0 532.64 532.64" style="enable-background:new 0 0 532.64 532.64;" xml:space="preserve">
<style type="text/css">
	.st0{fill:#F3F3F3;}
	.st1{fill:#FFFFFF;}
	.st2{fill:#A780EE;}
	.st3{fill:#030303;}
	.st4{fill:#FFFFFF;stroke:#1A1A18;stroke-width:4;stroke-miterlimit:10;}
	.st5{opacity:0.2;clip-path:url(#SVGID_2_);fill:#030303;}
	.st6{clip-path:url(#SVGID_2_);fill:#FFFFFF;}
	.st7{clip-path:url(#SVGID_2_);fill:#A780EE;}
	.st8{fill:#0E2F56;}
	.st9{display:none;opacity:0.5;}
	.st10{display:inline;}
	.st11{fill:#FFFFFF;stroke:#5E5E5E;stroke-miterlimit:10;}
	.st12{opacity:0.1;fill:#FFFFFF;stroke:#5E5E5E;stroke-miterlimit:10;enable-background:new    ;}
	.st13{fill:#5E5E5E;}
	.st14{opacity:0.05;clip-path:url(#SVGID_4_);}
	.st15{opacity:0.15;clip-path:url(#SVGID_6_);}
	.st16{opacity:0.15;clip-path:url(#SVGID_8_);}
	.st17{display:none;opacity:0.2;}
	.st18{opacity:0.07;}
	.st19{opacity:0.15;}
	.st20{fill:#455A64;}
	.st21{opacity:0.5;clip-path:url(#SVGID_10_);}
	.st22{opacity:0.5;clip-path:url(#SVGID_12_);}
	.st23{opacity:0.3;clip-path:url(#SVGID_14_);}
	.st24{opacity:0.3;clip-path:url(#SVGID_16_);}
	.st25{opacity:0.3;clip-path:url(#SVGID_18_);}
	.st26{opacity:0.3;clip-path:url(#SVGID_20_);}
	.st27{opacity:0.1;enable-background:new    ;}
	.st28{fill:#E2E2E2;}
	.st29{opacity:0.3;clip-path:url(#SVGID_22_);}
	.st30{opacity:0.25;clip-path:url(#SVGID_24_);}
	.st31{opacity:0.3;enable-background:new    ;}
	.st32{opacity:0.25;clip-path:url(#SVGID_26_);}
	.st33{fill:#3F3F3F;}
	.st34{opacity:0.25;clip-path:url(#SVGID_28_);}
	.st35{display:none;fill:#E48181;}
	.st36{display:none;opacity:0.3;enable-background:new    ;}
	.st37{opacity:0.25;clip-path:url(#SVGID_30_);}
	.st38{fill:#0083E4;}
	.st39{opacity:0.3;clip-path:url(#SVGID_32_);}
	.st40{fill:#A880EF;}
	.st41{clip-path:url(#SVGID_34_);}
	.st42{clip-path:url(#SVGID_36_);}
	.st43{display:none;clip-path:url(#SVGID_36_);fill:url(#SVGID_37_);}
	.st44{fill:#FFFFFF;stroke:#A780EE;stroke-width:2;stroke-miterlimit:10;}
	.st45{fill:none;stroke:#A780EE;stroke-width:7;stroke-miterlimit:10;}
	.st46{display:none;fill:#F3F3F3;}
	.st47{fill:none;stroke:#0E2F56;stroke-width:5.5;stroke-linecap:round;stroke-miterlimit:10;}
	.st48{fill:none;stroke:#0E2F56;stroke-width:5.5;stroke-miterlimit:10;}
	.st49{display:none;fill:none;stroke:#0E2F56;stroke-width:5.5;stroke-miterlimit:10;}
	.st50{fill-rule:evenodd;clip-rule:evenodd;fill:#FFFFFF;}
	.st51{fill:#F2F2F2;}
	.st52{clip-path:url(#SVGID_39_);}
	.st53{opacity:0.25;fill:none;stroke:#000000;stroke-width:15;stroke-linecap:round;stroke-miterlimit:10;}
	.st54{fill:#151515;}
	.st55{opacity:0.25;fill:none;stroke:#000000;stroke-miterlimit:10;}
	.st56{clip-path:url(#SVGID_41_);}
	.st57{clip-path:url(#SVGID_43_);}
	.st58{clip-path:url(#SVGID_45_);}
	.st59{clip-path:url(#SVGID_47_);}
	.st60{opacity:0.25;fill:none;stroke:#404040;stroke-miterlimit:10;}
	.st61{fill:#404040;}
	.st62{opacity:0.5;fill:none;stroke:#DDDDDD;stroke-miterlimit:10;}
	.st63{opacity:0.75;}
	.st64{fill:#66CF80;}
	.st65{clip-path:url(#SVGID_49_);}
	.st66{display:none;clip-path:url(#SVGID_49_);fill:url(#SVGID_50_);}
	.st67{clip-path:url(#SVGID_52_);}
	.st68{clip-path:url(#SVGID_54_);}
	.st69{clip-path:url(#SVGID_60_);}
	.st70{display:none;clip-path:url(#SVGID_60_);fill:url(#SVGID_61_);}
	.st71{fill:none;stroke:#A880EF;stroke-width:2;stroke-miterlimit:10;}
	.st72{opacity:0.25;fill:none;stroke:#565656;stroke-miterlimit:10;}
	.st73{opacity:0.15;fill:#565656;}
	.st74{opacity:0.5;}
	.st75{opacity:0.15;fill:none;stroke:#565656;stroke-width:2;stroke-miterlimit:10;}
	.st76{clip-path:url(#SVGID_63_);}
	.st77{opacity:0.85;}
	.st78{fill:#565656;}
	.st79{clip-path:url(#SVGID_65_);}
	.st80{fill:none;stroke:#FFFFFF;stroke-width:1.5;stroke-miterlimit:10;}
	.st81{fill:#29D34B;}
	.st82{opacity:0.2;clip-path:url(#SVGID_67_);fill:#030303;}
	.st83{clip-path:url(#SVGID_67_);fill:#FFFFFF;}
	.st84{clip-path:url(#SVGID_67_);fill:#A780EE;}
	.st85{clip-path:url(#SVGID_69_);}
	.st86{clip-path:url(#SVGID_73_);}
	.st87{fill:none;stroke:#FFFFFF;stroke-miterlimit:10;}
	.st88{fill:#1A3054;}
	.st89{fill:#A0CC3A;}
	.st90{fill:none;stroke:#A780EE;stroke-width:2.7;stroke-linecap:round;stroke-linejoin:round;stroke-miterlimit:10;}
	.st91{fill:#1A1528;}
	.st92{clip-path:url(#SVGID_75_);}
	.st93{opacity:0.2;clip-path:url(#SVGID_77_);fill:#030303;}
	.st94{clip-path:url(#SVGID_77_);fill:#FFFFFF;}
	.st95{clip-path:url(#SVGID_77_);fill:#A780EE;}
	.st96{opacity:0.2;clip-path:url(#SVGID_79_);fill:#030303;}
	.st97{clip-path:url(#SVGID_79_);fill:#FFFFFF;}
	.st98{clip-path:url(#SVGID_79_);fill:#FF802C;}
	.st99{opacity:0.2;clip-path:url(#SVGID_81_);fill:#030303;}
	.st100{clip-path:url(#SVGID_81_);fill:#FFFFFF;}
	.st101{clip-path:url(#SVGID_81_);fill:#75E095;}
	.st102{opacity:0.2;clip-path:url(#SVGID_83_);fill:#030303;}
	.st103{clip-path:url(#SVGID_83_);fill:#FFFFFF;}
	.st104{clip-path:url(#SVGID_83_);fill:#187FE2;}
	.st105{opacity:0.2;clip-path:url(#SVGID_85_);fill:#030303;}
	.st106{clip-path:url(#SVGID_85_);fill:#0E2F56;}
	.st107{display:none;}
</style>
<g id="Camada_1">
	<path class="st2" d="M317.17,397.21V293.37l18.68-24.7c3.36-4.5,5.18-9.96,5.19-15.58V175.9c0-5.33-2.12-10.44-5.89-14.21
		c-3.77-3.77-8.88-5.89-14.21-5.89c-3.83,0-7.59,1.12-10.8,3.21c-0.13-4.94-2.09-9.66-5.5-13.25c-3.41-3.58-8.03-5.77-12.96-6.15
		c-4.93-0.38-9.83,1.09-13.74,4.12c-1.68-4.46-4.9-8.16-9.07-10.45c-4.18-2.29-9.03-3.01-13.69-2.03
		c-4.66,0.98-8.82,3.59-11.72,7.37c-0.47-0.68-1-1.31-1.57-1.91c-3.75-3.8-8.86-5.92-14.2-5.9c-5.35-0.03-10.5,2.07-14.3,5.85
		c-3.8,3.77-5.94,8.9-5.95,14.25v39.61v1.87l-12.11,2.54v0c-2.17,0.46-3.73,2.37-3.73,4.6v49.43c0.01,0.91,0.26,1.8,0.75,2.58
		l27.5,41.81v103.84c0,1.24,0.49,2.43,1.37,3.3c0.88,0.88,2.06,1.37,3.3,1.37h87.99C315.07,401.84,317.15,399.77,317.17,397.21
		L317.17,397.21z M310.04,199.48V175.9c0-3.84,2.05-7.4,5.38-9.32c3.33-1.92,7.43-1.92,10.76,0c3.33,1.92,5.38,5.47,5.38,9.32v39.6
		c0,3.84-2.05,7.4-5.38,9.32c-3.33,1.92-7.43,1.92-10.76,0c-3.33-1.92-5.38-5.48-5.38-9.32V199.48z M279.17,190.51v-30.86
		c0-3.84,2.05-7.4,5.38-9.32c3.33-1.92,7.43-1.92,10.76,0c3.33,1.92,5.38,5.48,5.38,9.32v39.83c0,3.84-2.05,7.4-5.38,9.32
		c-3.33,1.92-7.43,1.92-10.76,0c-3.33-1.92-5.38-5.48-5.38-9.32V190.51z M248.31,150.91c0-3.84,2.05-7.4,5.38-9.32
		c3.33-1.92,7.43-1.92,10.76,0c3.33,1.92,5.38,5.47,5.38,9.32v39.61c0,2.85-1.13,5.59-3.15,7.61c-2.02,2.02-4.75,3.15-7.61,3.15
		c-1.27-0.01-2.54-0.24-3.74-0.67l-6.95-9.94v-39.75L248.31,150.91z M216.86,150.91c0-2.86,1.13-5.6,3.15-7.62
		c2.02-2.02,4.75-3.17,7.61-3.18c2.84,0.03,5.56,1.18,7.56,3.2c2,2.02,3.12,4.75,3.12,7.59v34.9l-21.45,4.63L216.86,150.91z
		 M307.83,291.95v100.59h-78.46l0-100.59c0.01-0.92-0.27-1.82-0.78-2.58l-27.46-41.81v-44.35l38.85-8.26l0.71,1.01l1.57,2.24v0.19
		l11.21,15.99v0c-1.72,3.33-4.53,5.98-7.96,7.51c-1.57,0.36-3.21-0.06-4.41-1.12c-11.66-8.37-17.04-9.45-18.42-9.6v0
		c-2.26-0.19-4.33,1.27-4.9,3.46c-0.58,2.19,0.5,4.48,2.55,5.43c0.22,0,23.39,10.98,21.26,25c-0.41,2.49,1.25,4.85,3.74,5.31
		c2.5,0.41,4.87-1.25,5.34-3.74c0.76-5.38-0.39-10.85-3.25-15.47h0.19c9.19-2.28,14.94-13.23,15.5-14.46
		c0.78-1.52,0.65-3.35-0.34-4.75l-0.86-1.27c3.32-0.44,6.47-1.73,9.16-3.74c2.11,5.67,6.69,10.07,12.44,11.96
		c5.75,1.89,12.05,1.06,17.11-2.25c0.13,4.75,1.94,9.29,5.11,12.82c3.17,3.53,7.5,5.82,12.2,6.46c4.7,0.64,9.48-0.42,13.48-2.99
		v20.77c0.01,3.6-1.16,7.1-3.33,9.98l-19.31,25.44C308.16,289.95,307.83,290.94,307.83,291.95L307.83,291.95z"/>
	<g>
		<path class="st2" d="M266.32,532.64C119.47,532.64,0,413.17,0,266.32S119.47,0,266.32,0s266.33,119.47,266.33,266.32
			S413.17,532.64,266.32,532.64z M266.32,12.45c-139.98,0-253.87,113.89-253.87,253.87c0,139.99,113.89,253.88,253.87,253.88
			c139.99,0,253.88-113.89,253.88-253.88C520.2,126.34,406.31,12.45,266.32,12.45z"/>
	</g>
</g>
<g id="Camada_3">
</g>
<g id="Camada_2" class="st107">
</g>
</svg>
