<?xml version="1.0" encoding="utf-8"?>
<!-- Generator: Adobe Illustrator 25.2.1, SVG Export Plug-In . SVG Version: 6.00 Build 0)  -->
<svg version="1.1" xmlns="http://www.w3.org/2000/svg" xmlns:xlink="http://www.w3.org/1999/xlink" x="0px" y="0px"
	 viewBox="0 0 532.64 532.64" style="enable-background:new 0 0 532.64 532.64;" xml:space="preserve">
<style type="text/css">
	.st0{fill:#F3F3F3;}
	.st1{fill:#FFFFFF;}
	.st2{fill:#A780EE;}
	.st3{fill:#030303;}
	.st4{fill:#FFFFFF;stroke:#1A1A18;stroke-width:4;stroke-miterlimit:10;}
	.st5{opacity:0.2;clip-path:url(#SVGID_2_);fill:#030303;}
	.st6{clip-path:url(#SVGID_2_);fill:#FFFFFF;}
	.st7{clip-path:url(#SVGID_2_);fill:#A780EE;}
	.st8{fill:#0E2F56;}
	.st9{display:none;opacity:0.5;}
	.st10{display:inline;}
	.st11{fill:#FFFFFF;stroke:#5E5E5E;stroke-miterlimit:10;}
	.st12{opacity:0.1;fill:#FFFFFF;stroke:#5E5E5E;stroke-miterlimit:10;enable-background:new    ;}
	.st13{fill:#5E5E5E;}
	.st14{opacity:0.05;clip-path:url(#SVGID_4_);}
	.st15{opacity:0.15;clip-path:url(#SVGID_6_);}
	.st16{opacity:0.15;clip-path:url(#SVGID_8_);}
	.st17{display:none;opacity:0.2;}
	.st18{opacity:0.07;}
	.st19{opacity:0.15;}
	.st20{fill:#455A64;}
	.st21{opacity:0.5;clip-path:url(#SVGID_10_);}
	.st22{opacity:0.5;clip-path:url(#SVGID_12_);}
	.st23{opacity:0.3;clip-path:url(#SVGID_14_);}
	.st24{opacity:0.3;clip-path:url(#SVGID_16_);}
	.st25{opacity:0.3;clip-path:url(#SVGID_18_);}
	.st26{opacity:0.3;clip-path:url(#SVGID_20_);}
	.st27{opacity:0.1;enable-background:new    ;}
	.st28{fill:#E2E2E2;}
	.st29{opacity:0.3;clip-path:url(#SVGID_22_);}
	.st30{opacity:0.25;clip-path:url(#SVGID_24_);}
	.st31{opacity:0.3;enable-background:new    ;}
	.st32{opacity:0.25;clip-path:url(#SVGID_26_);}
	.st33{fill:#3F3F3F;}
	.st34{opacity:0.25;clip-path:url(#SVGID_28_);}
	.st35{display:none;fill:#E48181;}
	.st36{display:none;opacity:0.3;enable-background:new    ;}
	.st37{opacity:0.25;clip-path:url(#SVGID_30_);}
	.st38{fill:#0083E4;}
	.st39{opacity:0.3;clip-path:url(#SVGID_32_);}
	.st40{fill:#A880EF;}
	.st41{clip-path:url(#SVGID_34_);}
	.st42{clip-path:url(#SVGID_36_);}
	.st43{display:none;clip-path:url(#SVGID_36_);fill:url(#SVGID_37_);}
	.st44{fill:#FFFFFF;stroke:#A780EE;stroke-width:2;stroke-miterlimit:10;}
	.st45{fill:none;stroke:#A780EE;stroke-width:7;stroke-miterlimit:10;}
	.st46{display:none;fill:#F3F3F3;}
	.st47{fill:none;stroke:#0E2F56;stroke-width:5.5;stroke-linecap:round;stroke-miterlimit:10;}
	.st48{fill:none;stroke:#0E2F56;stroke-width:5.5;stroke-miterlimit:10;}
	.st49{display:none;fill:none;stroke:#0E2F56;stroke-width:5.5;stroke-miterlimit:10;}
	.st50{fill-rule:evenodd;clip-rule:evenodd;fill:#FFFFFF;}
	.st51{fill:#F2F2F2;}
	.st52{clip-path:url(#SVGID_39_);}
	.st53{opacity:0.25;fill:none;stroke:#000000;stroke-width:15;stroke-linecap:round;stroke-miterlimit:10;}
	.st54{fill:#151515;}
	.st55{opacity:0.25;fill:none;stroke:#000000;stroke-miterlimit:10;}
	.st56{clip-path:url(#SVGID_41_);}
	.st57{clip-path:url(#SVGID_43_);}
	.st58{clip-path:url(#SVGID_45_);}
	.st59{clip-path:url(#SVGID_47_);}
	.st60{opacity:0.25;fill:none;stroke:#404040;stroke-miterlimit:10;}
	.st61{fill:#404040;}
	.st62{opacity:0.5;fill:none;stroke:#DDDDDD;stroke-miterlimit:10;}
	.st63{opacity:0.75;}
	.st64{fill:#66CF80;}
	.st65{clip-path:url(#SVGID_49_);}
	.st66{display:none;clip-path:url(#SVGID_49_);fill:url(#SVGID_50_);}
	.st67{clip-path:url(#SVGID_52_);}
	.st68{clip-path:url(#SVGID_54_);}
	.st69{clip-path:url(#SVGID_60_);}
	.st70{display:none;clip-path:url(#SVGID_60_);fill:url(#SVGID_61_);}
	.st71{fill:none;stroke:#A880EF;stroke-width:2;stroke-miterlimit:10;}
	.st72{opacity:0.25;fill:none;stroke:#565656;stroke-miterlimit:10;}
	.st73{opacity:0.15;fill:#565656;}
	.st74{opacity:0.5;}
	.st75{opacity:0.15;fill:none;stroke:#565656;stroke-width:2;stroke-miterlimit:10;}
	.st76{clip-path:url(#SVGID_63_);}
	.st77{opacity:0.85;}
	.st78{fill:#565656;}
	.st79{clip-path:url(#SVGID_65_);}
	.st80{fill:none;stroke:#FFFFFF;stroke-width:1.5;stroke-miterlimit:10;}
	.st81{fill:#29D34B;}
	.st82{opacity:0.2;clip-path:url(#SVGID_67_);fill:#030303;}
	.st83{clip-path:url(#SVGID_67_);fill:#FFFFFF;}
	.st84{clip-path:url(#SVGID_67_);fill:#A780EE;}
	.st85{clip-path:url(#SVGID_69_);}
	.st86{clip-path:url(#SVGID_73_);}
	.st87{fill:none;stroke:#FFFFFF;stroke-miterlimit:10;}
	.st88{fill:#1A3054;}
	.st89{fill:#A0CC3A;}
	.st90{fill:none;stroke:#A780EE;stroke-width:2.7;stroke-linecap:round;stroke-linejoin:round;stroke-miterlimit:10;}
	.st91{fill:#1A1528;}
	.st92{clip-path:url(#SVGID_75_);}
	.st93{opacity:0.2;clip-path:url(#SVGID_77_);fill:#030303;}
	.st94{clip-path:url(#SVGID_77_);fill:#FFFFFF;}
	.st95{clip-path:url(#SVGID_77_);fill:#A780EE;}
	.st96{opacity:0.2;clip-path:url(#SVGID_79_);fill:#030303;}
	.st97{clip-path:url(#SVGID_79_);fill:#FFFFFF;}
	.st98{clip-path:url(#SVGID_79_);fill:#FF802C;}
	.st99{opacity:0.2;clip-path:url(#SVGID_81_);fill:#030303;}
	.st100{clip-path:url(#SVGID_81_);fill:#FFFFFF;}
	.st101{clip-path:url(#SVGID_81_);fill:#75E095;}
	.st102{opacity:0.2;clip-path:url(#SVGID_83_);fill:#030303;}
	.st103{clip-path:url(#SVGID_83_);fill:#FFFFFF;}
	.st104{clip-path:url(#SVGID_83_);fill:#187FE2;}
	.st105{opacity:0.2;clip-path:url(#SVGID_85_);fill:#030303;}
	.st106{clip-path:url(#SVGID_85_);fill:#0E2F56;}
	.st107{display:none;}
</style>
<g id="Camada_1">
	<g>
		<path class="st2" d="M262.64,185.32c-1.81-0.25-4.12,1.02-4.7,3.06L234.91,269c-1.5,5.26,2.58,10.67,8.05,10.67
			c0.89,0,1.73-0.35,2.36-0.98c0.63-0.63,0.98-1.48,0.98-2.36c0-0.89-0.35-1.73-0.98-2.36s-1.48-0.98-2.36-0.98
			c-1.21,0-1.97-1-1.64-2.17l18.33-64.13v42.93c0,5.49,4.52,10.01,10.01,10.01h20.03c1.21,0,1.97,1,1.64,2.16L273,325.94v-42.93
			c0-5.49-4.52-10.01-10.01-10.01h-6.68c-1.84,0-3.34,1.49-3.34,3.34c0,0.89,0.35,1.73,0.98,2.36s1.48,0.98,2.36,0.98h6.68
			c1.88,0,3.34,1.46,3.34,3.34v60.09c0,2.12,1.87,3.98,3.68,4.23c1.81,0.25,4.12-1.02,4.7-3.06l23.04-80.63
			c1.5-5.26-2.58-10.67-8.05-10.67h-20.03c-1.88,0-3.34-1.46-3.34-3.34v-60.09C266.32,187.43,264.46,185.57,262.64,185.32
			L262.64,185.32z M194.39,201.45L194.39,201.45c-0.68-0.57-1.55-0.85-2.44-0.77c-0.88,0.08-1.7,0.5-2.27,1.18
			c-28.14,33.46-31.32,81.34-7.86,118.23c4.06,6.39,8.84,12.3,14.23,17.62c1.31,1.29,3.43,1.28,4.72-0.03
			c0.62-0.63,0.97-1.48,0.96-2.37c-0.01-0.89-0.37-1.73-1-2.35c-5.04-4.96-9.49-10.48-13.29-16.44
			c-10.68-16.78-15.72-36.53-14.4-56.37c1.32-19.84,8.94-38.75,21.75-53.97c0.57-0.68,0.85-1.56,0.77-2.44
			C195.5,202.83,195.08,202.01,194.39,201.45L194.39,201.45z M209.3,340.39L209.3,340.39c-1.46-1.13-3.56-0.85-4.68,0.61
			c-1.12,1.46-0.85,3.56,0.61,4.68c12.19,9.39,26.39,15.83,41.48,18.85c15.09,3.01,30.67,2.51,45.54-1.48
			c1.78-0.48,2.83-2.31,2.36-4.08c-0.23-0.86-0.79-1.59-1.56-2.03c-0.77-0.44-1.68-0.56-2.53-0.33c-13.87,3.72-28.42,4.19-42.5,1.38
			C233.93,355.17,220.68,349.15,209.3,340.39L209.3,340.39z M263.56,166.21c-7.83,0.22-15.6,1.35-23.16,3.38
			c-0.86,0.23-1.58,0.79-2.03,1.56c-0.44,0.77-0.56,1.68-0.33,2.53c0.23,0.86,0.79,1.59,1.56,2.03c0.77,0.44,1.68,0.56,2.53,0.33
			c13.87-3.72,28.42-4.19,42.5-1.38c14.08,2.81,27.33,8.83,38.71,17.59c1.46,1.12,3.55,0.85,4.68-0.61c0.54-0.7,0.78-1.59,0.67-2.47
			c-0.11-0.88-0.57-1.68-1.28-2.22C309.15,172.91,286.6,165.59,263.56,166.21L263.56,166.21z M336.58,194.96
			c-1.31-1.29-3.43-1.28-4.72,0.03c-0.62,0.63-0.97,1.48-0.96,2.37c0.01,0.89,0.36,1.73,1,2.35c5.04,4.96,9.49,10.48,13.29,16.44
			c10.68,16.78,15.72,36.53,14.4,56.37c-1.32,19.84-8.94,38.75-21.75,53.97c-0.57,0.68-0.85,1.56-0.77,2.44
			c0.08,0.88,0.5,1.7,1.18,2.27s1.56,0.85,2.44,0.77c0.88-0.08,1.7-0.5,2.27-1.18c28.14-33.45,31.33-81.34,7.86-118.23
			C346.75,206.18,341.98,200.28,336.58,194.96L336.58,194.96z"/>
		<path class="st2" d="M176.19,199.56c-1.84,0-3.34,1.49-3.34,3.34c0,0.89,0.35,1.73,0.98,2.36s1.48,0.98,2.36,0.98h16.69v16.69
			c0,0.89,0.35,1.73,0.98,2.36c0.63,0.63,1.48,0.98,2.36,0.98c0.89,0,1.73-0.35,2.36-0.98c0.63-0.63,0.98-1.48,0.98-2.36V202.9
			c0-0.89-0.35-1.73-0.98-2.36c-0.63-0.63-1.48-0.98-2.36-0.98H176.19z M336.42,306.38c-1.84,0-3.34,1.49-3.34,3.34v20.03
			c0,0.89,0.35,1.73,0.98,2.36c0.63,0.63,1.48,0.98,2.36,0.98h20.03c0.89,0,1.73-0.35,2.36-0.98c0.63-0.63,0.98-1.48,0.98-2.36
			c0-0.89-0.35-1.73-0.98-2.36c-0.63-0.63-1.48-0.98-2.36-0.98h-16.69v-16.69c0-0.89-0.35-1.73-0.98-2.36
			C338.16,306.73,337.31,306.38,336.42,306.38z"/>
	</g>
	<g>
		<path class="st2" d="M266.32,532.64C119.47,532.64,0,413.17,0,266.32S119.47,0,266.32,0s266.33,119.47,266.33,266.32
			S413.17,532.64,266.32,532.64z M266.32,12.45c-139.98,0-253.87,113.89-253.87,253.87c0,139.99,113.89,253.88,253.87,253.88
			c139.99,0,253.88-113.89,253.88-253.88C520.2,126.34,406.31,12.45,266.32,12.45z"/>
	</g>
</g>
<g id="Camada_3">
</g>
<g id="Camada_2" class="st107">
</g>
</svg>
