<?xml version="1.0" encoding="utf-8"?>
<!-- Generator: Adobe Illustrator 25.2.1, SVG Export Plug-In . SVG Version: 6.00 Build 0)  -->
<svg version="1.1" xmlns="http://www.w3.org/2000/svg" xmlns:xlink="http://www.w3.org/1999/xlink" x="0px" y="0px"
	 viewBox="0 0 532.64 532.64" style="enable-background:new 0 0 532.64 532.64;" xml:space="preserve">
<style type="text/css">
	.st0{fill:#F3F3F3;}
	.st1{fill:#FFFFFF;}
	.st2{fill:#A780EE;}
	.st3{fill:#030303;}
	.st4{fill:#FFFFFF;stroke:#1A1A18;stroke-width:4;stroke-miterlimit:10;}
	.st5{opacity:0.2;clip-path:url(#SVGID_2_);fill:#030303;}
	.st6{clip-path:url(#SVGID_2_);fill:#FFFFFF;}
	.st7{clip-path:url(#SVGID_2_);fill:#A780EE;}
	.st8{fill:#0E2F56;}
	.st9{display:none;opacity:0.5;}
	.st10{display:inline;}
	.st11{fill:#FFFFFF;stroke:#5E5E5E;stroke-miterlimit:10;}
	.st12{opacity:0.1;fill:#FFFFFF;stroke:#5E5E5E;stroke-miterlimit:10;enable-background:new    ;}
	.st13{fill:#5E5E5E;}
	.st14{opacity:0.05;clip-path:url(#SVGID_4_);}
	.st15{opacity:0.15;clip-path:url(#SVGID_6_);}
	.st16{opacity:0.15;clip-path:url(#SVGID_8_);}
	.st17{display:none;opacity:0.2;}
	.st18{opacity:0.07;}
	.st19{opacity:0.15;}
	.st20{fill:#455A64;}
	.st21{opacity:0.5;clip-path:url(#SVGID_10_);}
	.st22{opacity:0.5;clip-path:url(#SVGID_12_);}
	.st23{opacity:0.3;clip-path:url(#SVGID_14_);}
	.st24{opacity:0.3;clip-path:url(#SVGID_16_);}
	.st25{opacity:0.3;clip-path:url(#SVGID_18_);}
	.st26{opacity:0.3;clip-path:url(#SVGID_20_);}
	.st27{opacity:0.1;enable-background:new    ;}
	.st28{fill:#E2E2E2;}
	.st29{opacity:0.3;clip-path:url(#SVGID_22_);}
	.st30{opacity:0.25;clip-path:url(#SVGID_24_);}
	.st31{opacity:0.3;enable-background:new    ;}
	.st32{opacity:0.25;clip-path:url(#SVGID_26_);}
	.st33{fill:#3F3F3F;}
	.st34{opacity:0.25;clip-path:url(#SVGID_28_);}
	.st35{display:none;fill:#E48181;}
	.st36{display:none;opacity:0.3;enable-background:new    ;}
	.st37{opacity:0.25;clip-path:url(#SVGID_30_);}
	.st38{fill:#0083E4;}
	.st39{opacity:0.3;clip-path:url(#SVGID_32_);}
	.st40{fill:#A880EF;}
	.st41{clip-path:url(#SVGID_34_);}
	.st42{clip-path:url(#SVGID_36_);}
	.st43{display:none;clip-path:url(#SVGID_36_);fill:url(#SVGID_37_);}
	.st44{fill:#FFFFFF;stroke:#A780EE;stroke-width:2;stroke-miterlimit:10;}
	.st45{fill:none;stroke:#A780EE;stroke-width:7;stroke-miterlimit:10;}
	.st46{display:none;fill:#F3F3F3;}
	.st47{fill:none;stroke:#0E2F56;stroke-width:5.5;stroke-linecap:round;stroke-miterlimit:10;}
	.st48{fill:none;stroke:#0E2F56;stroke-width:5.5;stroke-miterlimit:10;}
	.st49{display:none;fill:none;stroke:#0E2F56;stroke-width:5.5;stroke-miterlimit:10;}
	.st50{fill-rule:evenodd;clip-rule:evenodd;fill:#FFFFFF;}
	.st51{fill:#F2F2F2;}
	.st52{clip-path:url(#SVGID_39_);}
	.st53{opacity:0.25;fill:none;stroke:#000000;stroke-width:15;stroke-linecap:round;stroke-miterlimit:10;}
	.st54{fill:#151515;}
	.st55{opacity:0.25;fill:none;stroke:#000000;stroke-miterlimit:10;}
	.st56{clip-path:url(#SVGID_41_);}
	.st57{clip-path:url(#SVGID_43_);}
	.st58{clip-path:url(#SVGID_45_);}
	.st59{clip-path:url(#SVGID_47_);}
	.st60{opacity:0.25;fill:none;stroke:#404040;stroke-miterlimit:10;}
	.st61{fill:#404040;}
	.st62{opacity:0.5;fill:none;stroke:#DDDDDD;stroke-miterlimit:10;}
	.st63{opacity:0.75;}
	.st64{fill:#66CF80;}
	.st65{clip-path:url(#SVGID_49_);}
	.st66{display:none;clip-path:url(#SVGID_49_);fill:url(#SVGID_50_);}
	.st67{clip-path:url(#SVGID_52_);}
	.st68{clip-path:url(#SVGID_54_);}
	.st69{clip-path:url(#SVGID_60_);}
	.st70{display:none;clip-path:url(#SVGID_60_);fill:url(#SVGID_61_);}
	.st71{fill:none;stroke:#A880EF;stroke-width:2;stroke-miterlimit:10;}
	.st72{opacity:0.25;fill:none;stroke:#565656;stroke-miterlimit:10;}
	.st73{opacity:0.15;fill:#565656;}
	.st74{opacity:0.5;}
	.st75{opacity:0.15;fill:none;stroke:#565656;stroke-width:2;stroke-miterlimit:10;}
	.st76{clip-path:url(#SVGID_63_);}
	.st77{opacity:0.85;}
	.st78{fill:#565656;}
	.st79{clip-path:url(#SVGID_65_);}
	.st80{fill:none;stroke:#FFFFFF;stroke-width:1.5;stroke-miterlimit:10;}
	.st81{fill:#29D34B;}
	.st82{opacity:0.2;clip-path:url(#SVGID_67_);fill:#030303;}
	.st83{clip-path:url(#SVGID_67_);fill:#FFFFFF;}
	.st84{clip-path:url(#SVGID_67_);fill:#A780EE;}
	.st85{clip-path:url(#SVGID_69_);}
	.st86{clip-path:url(#SVGID_73_);}
	.st87{fill:none;stroke:#FFFFFF;stroke-miterlimit:10;}
	.st88{fill:#1A3054;}
	.st89{fill:#A0CC3A;}
	.st90{fill:none;stroke:#A780EE;stroke-width:2.7;stroke-linecap:round;stroke-linejoin:round;stroke-miterlimit:10;}
	.st91{fill:#1A1528;}
	.st92{clip-path:url(#SVGID_75_);}
	.st93{opacity:0.2;clip-path:url(#SVGID_77_);fill:#030303;}
	.st94{clip-path:url(#SVGID_77_);fill:#FFFFFF;}
	.st95{clip-path:url(#SVGID_77_);fill:#A780EE;}
	.st96{opacity:0.2;clip-path:url(#SVGID_79_);fill:#030303;}
	.st97{clip-path:url(#SVGID_79_);fill:#FFFFFF;}
	.st98{clip-path:url(#SVGID_79_);fill:#FF802C;}
	.st99{opacity:0.2;clip-path:url(#SVGID_81_);fill:#030303;}
	.st100{clip-path:url(#SVGID_81_);fill:#FFFFFF;}
	.st101{clip-path:url(#SVGID_81_);fill:#75E095;}
	.st102{opacity:0.2;clip-path:url(#SVGID_83_);fill:#030303;}
	.st103{clip-path:url(#SVGID_83_);fill:#FFFFFF;}
	.st104{clip-path:url(#SVGID_83_);fill:#187FE2;}
	.st105{opacity:0.2;clip-path:url(#SVGID_85_);fill:#030303;}
	.st106{clip-path:url(#SVGID_85_);fill:#0E2F56;}
	.st107{display:none;}
</style>
<g id="Camada_1">
	<g>
		<g>
			<path class="st2" d="M266.32,365.33c-26.45,0-51.31-10.3-70.01-29c-18.7-18.7-29-43.56-29-70.01c0-26.45,10.3-51.31,29-70.01
				s43.56-29,70.01-29c26.45,0,51.31,10.3,70.01,29c18.7,18.7,29,43.56,29,70.01c0,26.45-10.3,51.31-29,70.01
				C317.63,355.03,292.77,365.33,266.32,365.33z M266.32,174.06c-50.87,0-92.26,41.39-92.26,92.26s41.39,92.26,92.26,92.26
				s92.26-41.39,92.26-92.26S317.19,174.06,266.32,174.06z"/>
		</g>
		<g>
			
				<rect x="262.95" y="170.69" transform="matrix(0.7071 -0.7071 0.7071 0.7071 -110.3144 266.3225)" class="st2" width="6.75" height="191.26"/>
		</g>
		<path class="st2" d="M270.55,223.29l-0.79-0.13v-12.25h-6.89v12.25l-0.78,0.13c-12.47,2.03-21.52,12.07-21.52,23.87
			c0,11.82,9.05,21.86,21.52,23.86l0.79,0.13v34.47l-1.14-0.25c-8.08-1.83-13.81-8.28-14.25-15.87h-6.9
			c0.46,11.42,9.36,20.98,21.5,22.93l0.79,0.13v10.94h6.89v-10.94l0.78-0.13c12.47-2.03,21.52-12.06,21.52-23.87
			c0-11.8-9.05-21.83-21.52-23.86l-0.78-0.13V230.1l1.14,0.25c8.08,1.83,13.82,8.28,14.25,15.86h6.89
			C291.59,234.81,282.7,225.24,270.55,223.29z M263.03,264.05l-1.13-0.25c-8.42-1.87-14.3-8.78-14.3-16.8
			c0-7.86,5.87-14.77,14.28-16.8l1.15-0.28V264.05z M270.9,271.76c8.41,1.91,14.28,8.81,14.28,16.8c0,7.9-5.88,14.75-14.28,16.66
			l-1.14,0.25V271.5L270.9,271.76z"/>
	</g>
	<g>
		<path class="st2" d="M266.32,532.64C119.47,532.64,0,413.17,0,266.32S119.47,0,266.32,0s266.33,119.47,266.33,266.32
			S413.17,532.64,266.32,532.64z M266.32,12.45c-139.98,0-253.87,113.89-253.87,253.87c0,139.99,113.89,253.88,253.87,253.88
			c139.99,0,253.88-113.89,253.88-253.88C520.2,126.34,406.31,12.45,266.32,12.45z"/>
	</g>
</g>
<g id="Camada_3">
</g>
<g id="Camada_2" class="st107">
</g>
</svg>
