<?xml version="1.0" encoding="utf-8"?>
<!-- Generator: Adobe Illustrator 25.2.1, SVG Export Plug-In . SVG Version: 6.00 Build 0)  -->
<svg version="1.1" xmlns="http://www.w3.org/2000/svg" xmlns:xlink="http://www.w3.org/1999/xlink" x="0px" y="0px"
	 viewBox="0 0 532.64 532.64" style="enable-background:new 0 0 532.64 532.64;" xml:space="preserve">
<style type="text/css">
	.st0{fill:#F3F3F3;}
	.st1{fill:#FFFFFF;}
	.st2{fill:#A780EE;}
	.st3{fill:#030303;}
	.st4{fill:#FFFFFF;stroke:#1A1A18;stroke-width:4;stroke-miterlimit:10;}
	.st5{opacity:0.2;clip-path:url(#SVGID_2_);fill:#030303;}
	.st6{clip-path:url(#SVGID_2_);fill:#FFFFFF;}
	.st7{clip-path:url(#SVGID_2_);fill:#A780EE;}
	.st8{fill:#0E2F56;}
	.st9{display:none;opacity:0.5;}
	.st10{display:inline;}
	.st11{fill:#FFFFFF;stroke:#5E5E5E;stroke-miterlimit:10;}
	.st12{opacity:0.1;fill:#FFFFFF;stroke:#5E5E5E;stroke-miterlimit:10;enable-background:new    ;}
	.st13{fill:#5E5E5E;}
	.st14{opacity:0.05;clip-path:url(#SVGID_4_);}
	.st15{opacity:0.15;clip-path:url(#SVGID_6_);}
	.st16{opacity:0.15;clip-path:url(#SVGID_8_);}
	.st17{display:none;opacity:0.2;}
	.st18{opacity:0.07;}
	.st19{opacity:0.15;}
	.st20{fill:#455A64;}
	.st21{opacity:0.5;clip-path:url(#SVGID_10_);}
	.st22{opacity:0.5;clip-path:url(#SVGID_12_);}
	.st23{opacity:0.3;clip-path:url(#SVGID_14_);}
	.st24{opacity:0.3;clip-path:url(#SVGID_16_);}
	.st25{opacity:0.3;clip-path:url(#SVGID_18_);}
	.st26{opacity:0.3;clip-path:url(#SVGID_20_);}
	.st27{opacity:0.1;enable-background:new    ;}
	.st28{fill:#E2E2E2;}
	.st29{opacity:0.3;clip-path:url(#SVGID_22_);}
	.st30{opacity:0.25;clip-path:url(#SVGID_24_);}
	.st31{opacity:0.3;enable-background:new    ;}
	.st32{opacity:0.25;clip-path:url(#SVGID_26_);}
	.st33{fill:#3F3F3F;}
	.st34{opacity:0.25;clip-path:url(#SVGID_28_);}
	.st35{display:none;fill:#E48181;}
	.st36{display:none;opacity:0.3;enable-background:new    ;}
	.st37{opacity:0.25;clip-path:url(#SVGID_30_);}
	.st38{fill:#0083E4;}
	.st39{opacity:0.3;clip-path:url(#SVGID_32_);}
	.st40{fill:#A880EF;}
	.st41{clip-path:url(#SVGID_34_);}
	.st42{clip-path:url(#SVGID_36_);}
	.st43{display:none;clip-path:url(#SVGID_36_);fill:url(#SVGID_37_);}
	.st44{fill:#FFFFFF;stroke:#A780EE;stroke-width:2;stroke-miterlimit:10;}
	.st45{fill:none;stroke:#A780EE;stroke-width:7;stroke-miterlimit:10;}
	.st46{display:none;fill:#F3F3F3;}
	.st47{fill:none;stroke:#0E2F56;stroke-width:5.5;stroke-linecap:round;stroke-miterlimit:10;}
	.st48{fill:none;stroke:#0E2F56;stroke-width:5.5;stroke-miterlimit:10;}
	.st49{display:none;fill:none;stroke:#0E2F56;stroke-width:5.5;stroke-miterlimit:10;}
	.st50{fill-rule:evenodd;clip-rule:evenodd;fill:#FFFFFF;}
	.st51{fill:#F2F2F2;}
	.st52{clip-path:url(#SVGID_39_);}
	.st53{opacity:0.25;fill:none;stroke:#000000;stroke-width:15;stroke-linecap:round;stroke-miterlimit:10;}
	.st54{fill:#151515;}
	.st55{opacity:0.25;fill:none;stroke:#000000;stroke-miterlimit:10;}
	.st56{clip-path:url(#SVGID_41_);}
	.st57{clip-path:url(#SVGID_43_);}
	.st58{clip-path:url(#SVGID_45_);}
	.st59{clip-path:url(#SVGID_47_);}
	.st60{opacity:0.25;fill:none;stroke:#404040;stroke-miterlimit:10;}
	.st61{fill:#404040;}
	.st62{opacity:0.5;fill:none;stroke:#DDDDDD;stroke-miterlimit:10;}
	.st63{opacity:0.75;}
	.st64{fill:#66CF80;}
	.st65{clip-path:url(#SVGID_49_);}
	.st66{display:none;clip-path:url(#SVGID_49_);fill:url(#SVGID_50_);}
	.st67{clip-path:url(#SVGID_52_);}
	.st68{clip-path:url(#SVGID_54_);}
	.st69{clip-path:url(#SVGID_60_);}
	.st70{display:none;clip-path:url(#SVGID_60_);fill:url(#SVGID_61_);}
	.st71{fill:none;stroke:#A880EF;stroke-width:2;stroke-miterlimit:10;}
	.st72{opacity:0.25;fill:none;stroke:#565656;stroke-miterlimit:10;}
	.st73{opacity:0.15;fill:#565656;}
	.st74{opacity:0.5;}
	.st75{opacity:0.15;fill:none;stroke:#565656;stroke-width:2;stroke-miterlimit:10;}
	.st76{clip-path:url(#SVGID_63_);}
	.st77{opacity:0.85;}
	.st78{fill:#565656;}
	.st79{clip-path:url(#SVGID_65_);}
	.st80{fill:none;stroke:#FFFFFF;stroke-width:1.5;stroke-miterlimit:10;}
	.st81{fill:#29D34B;}
	.st82{opacity:0.2;clip-path:url(#SVGID_67_);fill:#030303;}
	.st83{clip-path:url(#SVGID_67_);fill:#FFFFFF;}
	.st84{clip-path:url(#SVGID_67_);fill:#A780EE;}
	.st85{clip-path:url(#SVGID_69_);}
	.st86{clip-path:url(#SVGID_73_);}
	.st87{fill:none;stroke:#FFFFFF;stroke-miterlimit:10;}
	.st88{fill:#1A3054;}
	.st89{fill:#A0CC3A;}
	.st90{fill:none;stroke:#A780EE;stroke-width:2.7;stroke-linecap:round;stroke-linejoin:round;stroke-miterlimit:10;}
	.st91{fill:#1A1528;}
	.st92{clip-path:url(#SVGID_75_);}
	.st93{opacity:0.2;clip-path:url(#SVGID_77_);fill:#030303;}
	.st94{clip-path:url(#SVGID_77_);fill:#FFFFFF;}
	.st95{clip-path:url(#SVGID_77_);fill:#A780EE;}
	.st96{opacity:0.2;clip-path:url(#SVGID_79_);fill:#030303;}
	.st97{clip-path:url(#SVGID_79_);fill:#FFFFFF;}
	.st98{clip-path:url(#SVGID_79_);fill:#FF802C;}
	.st99{opacity:0.2;clip-path:url(#SVGID_81_);fill:#030303;}
	.st100{clip-path:url(#SVGID_81_);fill:#FFFFFF;}
	.st101{clip-path:url(#SVGID_81_);fill:#75E095;}
	.st102{opacity:0.2;clip-path:url(#SVGID_83_);fill:#030303;}
	.st103{clip-path:url(#SVGID_83_);fill:#FFFFFF;}
	.st104{clip-path:url(#SVGID_83_);fill:#187FE2;}
	.st105{opacity:0.2;clip-path:url(#SVGID_85_);fill:#030303;}
	.st106{clip-path:url(#SVGID_85_);fill:#0E2F56;}
	.st107{display:none;}
</style>
<g id="Camada_1">
	<g>
		<g>
			<g>
				<path class="st2" d="M276.01,323.18h-19.38l-1.77-11.78c-0.3-1.97-1.46-3.67-3.18-4.67l-13.04-7.53c-1.73-1-3.78-1.15-5.63-0.42
					l-11.09,4.36l-9.69-16.78l9.32-7.42c1.56-1.24,2.45-3.1,2.45-5.09V258.8c0-1.99-0.89-3.85-2.45-5.09l-9.32-7.42l9.69-16.78
					l11.09,4.36c1.85,0.73,3.91,0.58,5.64-0.42l13.03-7.53c1.73-1,2.89-2.7,3.18-4.67l1.77-11.79h19.38l1.77,11.79
					c0.3,1.97,1.45,3.67,3.18,4.67l13.04,7.53c1.73,1,3.78,1.15,5.63,0.42l11.09-4.36l9.69,16.78l-9.32,7.42
					c-1.56,1.24-2.45,3.1-2.45,5.09v15.05c0,1.99,0.89,3.85,2.45,5.09l9.32,7.42l-9.69,16.78l-11.09-4.36
					c-1.86-0.73-3.91-0.58-5.63,0.42l-13.03,7.53c-1.73,1-2.89,2.7-3.18,4.67L276.01,323.18z M262.48,316.39h7.68l0.9-6
					c0.6-4.03,2.97-7.51,6.5-9.54l13.03-7.53c3.53-2.04,7.72-2.35,11.52-0.86l5.65,2.22l3.84-6.65l-4.75-3.78
					c-3.19-2.54-5.01-6.33-5.01-10.4V258.8c0-4.07,1.83-7.86,5.01-10.4l4.75-3.78l-3.84-6.65l-5.65,2.22
					c-3.79,1.49-7.99,1.18-11.51-0.86l-13.04-7.53c-3.53-2.04-5.9-5.51-6.5-9.54l-0.9-6h-7.68l-0.9,6c-0.6,4.03-2.97,7.5-6.5,9.54
					l-13.03,7.53c-3.53,2.04-7.72,2.35-11.51,0.86l-5.65-2.22l-3.84,6.65l4.75,3.78c3.19,2.54,5.01,6.33,5.01,10.4v15.05
					c0,4.07-1.83,7.86-5.01,10.4l-4.75,3.78l3.84,6.65l5.65-2.22c3.79-1.49,7.98-1.18,11.51,0.86l13.04,7.53
					c3.53,2.04,5.9,5.51,6.5,9.54L262.48,316.39z"/>
			</g>
			<g>
				<path class="st2" d="M266.32,279.62c-7.33,0-13.3-5.96-13.3-13.3s5.96-13.3,13.3-13.3c7.33,0,13.3,5.96,13.3,13.3
					S273.65,279.62,266.32,279.62z M266.32,259.81c-3.59,0-6.51,2.92-6.51,6.51c0,3.59,2.92,6.51,6.51,6.51
					c3.59,0,6.51-2.92,6.51-6.51C272.83,262.73,269.91,259.81,266.32,259.81z"/>
			</g>
		</g>
		<g>
			<path class="st2" d="M266.32,365.96c-26.61,0-51.63-10.36-70.45-29.18c-18.82-18.82-29.18-43.84-29.18-70.45
				c0-26.61,10.36-51.63,29.18-70.45s43.84-29.18,70.45-29.18c26.61,0,51.63,10.36,70.45,29.18c18.82,18.82,29.18,43.84,29.18,70.45
				c0,26.61-10.36,51.63-29.18,70.45C317.96,355.59,292.94,365.96,266.32,365.96z M266.32,173.48c-51.19,0-92.84,41.65-92.84,92.84
				s41.65,92.84,92.84,92.84s92.84-41.65,92.84-92.84S317.52,173.48,266.32,173.48z"/>
		</g>
		<g>
			
				<rect x="262.93" y="170.08" transform="matrix(0.7071 -0.7071 0.7071 0.7071 -110.3144 266.3225)" class="st2" width="6.79" height="192.48"/>
		</g>
	</g>
	<g>
		<path class="st2" d="M266.32,532.64C119.47,532.64,0,413.17,0,266.32S119.47,0,266.32,0s266.33,119.47,266.33,266.32
			S413.17,532.64,266.32,532.64z M266.32,12.45c-139.98,0-253.87,113.89-253.87,253.87c0,139.99,113.89,253.88,253.87,253.88
			c139.99,0,253.88-113.89,253.88-253.88C520.2,126.34,406.31,12.45,266.32,12.45z"/>
	</g>
</g>
<g id="Camada_3">
</g>
<g id="Camada_2" class="st107">
</g>
</svg>
