<?xml version="1.0" encoding="utf-8"?>
<!-- Generator: Adobe Illustrator 25.2.1, SVG Export Plug-In . SVG Version: 6.00 Build 0)  -->
<svg version="1.1" xmlns="http://www.w3.org/2000/svg" xmlns:xlink="http://www.w3.org/1999/xlink" x="0px" y="0px"
	 viewBox="0 0 532.64 532.64" style="enable-background:new 0 0 532.64 532.64;" xml:space="preserve">
<style type="text/css">
	.st0{fill:#F3F3F3;}
	.st1{fill:#FFFFFF;}
	.st2{fill:#A780EE;}
	.st3{fill:#030303;}
	.st4{fill:#FFFFFF;stroke:#1A1A18;stroke-width:4;stroke-miterlimit:10;}
	.st5{opacity:0.2;clip-path:url(#SVGID_2_);fill:#030303;}
	.st6{clip-path:url(#SVGID_2_);fill:#FFFFFF;}
	.st7{clip-path:url(#SVGID_2_);fill:#A780EE;}
	.st8{fill:#0E2F56;}
	.st9{display:none;opacity:0.5;}
	.st10{display:inline;}
	.st11{fill:#FFFFFF;stroke:#5E5E5E;stroke-miterlimit:10;}
	.st12{opacity:0.1;fill:#FFFFFF;stroke:#5E5E5E;stroke-miterlimit:10;enable-background:new    ;}
	.st13{fill:#5E5E5E;}
	.st14{opacity:0.05;clip-path:url(#SVGID_4_);}
	.st15{opacity:0.15;clip-path:url(#SVGID_6_);}
	.st16{opacity:0.15;clip-path:url(#SVGID_8_);}
	.st17{display:none;opacity:0.2;}
	.st18{opacity:0.07;}
	.st19{opacity:0.15;}
	.st20{fill:#455A64;}
	.st21{opacity:0.5;clip-path:url(#SVGID_10_);}
	.st22{opacity:0.5;clip-path:url(#SVGID_12_);}
	.st23{opacity:0.3;clip-path:url(#SVGID_14_);}
	.st24{opacity:0.3;clip-path:url(#SVGID_16_);}
	.st25{opacity:0.3;clip-path:url(#SVGID_18_);}
	.st26{opacity:0.3;clip-path:url(#SVGID_20_);}
	.st27{opacity:0.1;enable-background:new    ;}
	.st28{fill:#E2E2E2;}
	.st29{opacity:0.3;clip-path:url(#SVGID_22_);}
	.st30{opacity:0.25;clip-path:url(#SVGID_24_);}
	.st31{opacity:0.3;enable-background:new    ;}
	.st32{opacity:0.25;clip-path:url(#SVGID_26_);}
	.st33{fill:#3F3F3F;}
	.st34{opacity:0.25;clip-path:url(#SVGID_28_);}
	.st35{display:none;fill:#E48181;}
	.st36{display:none;opacity:0.3;enable-background:new    ;}
	.st37{opacity:0.25;clip-path:url(#SVGID_30_);}
	.st38{fill:#0083E4;}
	.st39{opacity:0.3;clip-path:url(#SVGID_32_);}
	.st40{fill:#A880EF;}
	.st41{clip-path:url(#SVGID_34_);}
	.st42{clip-path:url(#SVGID_36_);}
	.st43{display:none;clip-path:url(#SVGID_36_);fill:url(#SVGID_37_);}
	.st44{fill:#FFFFFF;stroke:#A780EE;stroke-width:2;stroke-miterlimit:10;}
	.st45{fill:none;stroke:#A780EE;stroke-width:7;stroke-miterlimit:10;}
	.st46{display:none;fill:#F3F3F3;}
	.st47{fill:none;stroke:#0E2F56;stroke-width:5.5;stroke-linecap:round;stroke-miterlimit:10;}
	.st48{fill:none;stroke:#0E2F56;stroke-width:5.5;stroke-miterlimit:10;}
	.st49{display:none;fill:none;stroke:#0E2F56;stroke-width:5.5;stroke-miterlimit:10;}
	.st50{fill-rule:evenodd;clip-rule:evenodd;fill:#FFFFFF;}
	.st51{fill:#F2F2F2;}
	.st52{clip-path:url(#SVGID_39_);}
	.st53{opacity:0.25;fill:none;stroke:#000000;stroke-width:15;stroke-linecap:round;stroke-miterlimit:10;}
	.st54{fill:#151515;}
	.st55{opacity:0.25;fill:none;stroke:#000000;stroke-miterlimit:10;}
	.st56{clip-path:url(#SVGID_41_);}
	.st57{clip-path:url(#SVGID_43_);}
	.st58{clip-path:url(#SVGID_45_);}
	.st59{clip-path:url(#SVGID_47_);}
	.st60{opacity:0.25;fill:none;stroke:#404040;stroke-miterlimit:10;}
	.st61{fill:#404040;}
	.st62{opacity:0.5;fill:none;stroke:#DDDDDD;stroke-miterlimit:10;}
	.st63{opacity:0.75;}
	.st64{fill:#66CF80;}
	.st65{clip-path:url(#SVGID_49_);}
	.st66{display:none;clip-path:url(#SVGID_49_);fill:url(#SVGID_50_);}
	.st67{clip-path:url(#SVGID_52_);}
	.st68{clip-path:url(#SVGID_54_);}
	.st69{clip-path:url(#SVGID_60_);}
	.st70{display:none;clip-path:url(#SVGID_60_);fill:url(#SVGID_61_);}
	.st71{fill:none;stroke:#A880EF;stroke-width:2;stroke-miterlimit:10;}
	.st72{opacity:0.25;fill:none;stroke:#565656;stroke-miterlimit:10;}
	.st73{opacity:0.15;fill:#565656;}
	.st74{opacity:0.5;}
	.st75{opacity:0.15;fill:none;stroke:#565656;stroke-width:2;stroke-miterlimit:10;}
	.st76{clip-path:url(#SVGID_63_);}
	.st77{opacity:0.85;}
	.st78{fill:#565656;}
	.st79{clip-path:url(#SVGID_65_);}
	.st80{fill:none;stroke:#FFFFFF;stroke-width:1.5;stroke-miterlimit:10;}
	.st81{fill:#29D34B;}
	.st82{opacity:0.2;clip-path:url(#SVGID_67_);fill:#030303;}
	.st83{clip-path:url(#SVGID_67_);fill:#FFFFFF;}
	.st84{clip-path:url(#SVGID_67_);fill:#A780EE;}
	.st85{clip-path:url(#SVGID_69_);}
	.st86{clip-path:url(#SVGID_73_);}
	.st87{fill:none;stroke:#FFFFFF;stroke-miterlimit:10;}
	.st88{fill:#1A3054;}
	.st89{fill:#A0CC3A;}
	.st90{fill:none;stroke:#A780EE;stroke-width:2.7;stroke-linecap:round;stroke-linejoin:round;stroke-miterlimit:10;}
	.st91{fill:#1A1528;}
	.st92{clip-path:url(#SVGID_75_);}
	.st93{opacity:0.2;clip-path:url(#SVGID_77_);fill:#030303;}
	.st94{clip-path:url(#SVGID_77_);fill:#FFFFFF;}
	.st95{clip-path:url(#SVGID_77_);fill:#A780EE;}
	.st96{opacity:0.2;clip-path:url(#SVGID_79_);fill:#030303;}
	.st97{clip-path:url(#SVGID_79_);fill:#FFFFFF;}
	.st98{clip-path:url(#SVGID_79_);fill:#FF802C;}
	.st99{opacity:0.2;clip-path:url(#SVGID_81_);fill:#030303;}
	.st100{clip-path:url(#SVGID_81_);fill:#FFFFFF;}
	.st101{clip-path:url(#SVGID_81_);fill:#75E095;}
	.st102{opacity:0.2;clip-path:url(#SVGID_83_);fill:#030303;}
	.st103{clip-path:url(#SVGID_83_);fill:#FFFFFF;}
	.st104{clip-path:url(#SVGID_83_);fill:#187FE2;}
	.st105{opacity:0.2;clip-path:url(#SVGID_85_);fill:#030303;}
	.st106{clip-path:url(#SVGID_85_);fill:#0E2F56;}
	.st107{display:none;}
</style>
<g id="Camada_1">
	<g>
		<g>
			<path class="st2" d="M243.39,166.18c-19.78,0-39.57,7.55-54.65,22.63c-30.16,30.16-30.16,79.15,0,109.3
				c18.14,18.14,43.07,25.32,66.64,21.65l-2.15-5.46c-21.44,2.95-43.97-3.81-60.46-20.3c-27.97-27.97-27.97-73.19,0-101.16
				c13.98-13.98,32.32-21.02,50.63-21.02c18.31,0,36.64,7.04,50.63,21.02c16.51,16.51,23.29,39.02,20.3,60.46l5.37,2.06
				c3.65-23.54-3.53-48.43-21.64-66.55C282.96,173.73,263.17,166.18,243.39,166.18L243.39,166.18z M243.39,194.8
				c-12.46,0-24.95,4.73-34.44,14.22c-18.98,18.98-18.98,49.81,0,68.78c9.81,9.81,22.8,14.46,35.69,14.13l-2.15-5.55
				c-10.66-0.22-21.26-4.44-29.43-12.61c-16.79-16.79-16.79-43.94,0-60.73c8.4-8.4,19.34-12.61,30.32-12.61
				c10.98,0,21.93,4.22,30.32,12.61c8.17,8.17,12.39,18.74,12.61,29.43l5.63,2.24c0.35-12.89-4.31-25.86-14.13-35.69
				C268.33,199.53,255.84,194.8,243.39,194.8L243.39,194.8z M229.61,227.18c-0.88,0.13-1.65,0.65-2.08,1.42
				c-0.44,0.77-0.5,1.7-0.15,2.52l50.54,131.48c0.4,1.04,1.36,1.76,2.48,1.84c1.11,0.08,2.17-0.5,2.71-1.48l18.07-33.36l36.13,36.04
				c1.12,1.1,2.91,1.1,4.02,0l24.33-24.24c0.56-0.54,0.87-1.28,0.87-2.06c0-0.77-0.32-1.52-0.87-2.06l-36.04-35.96l33.36-18.16
				c0.98-0.54,1.56-1.59,1.48-2.71c-0.08-1.11-0.79-2.08-1.84-2.48l-131.57-50.63h0C230.59,227.18,230.09,227.12,229.61,227.18
				L229.61,227.18z M234.98,235.05l119.76,46.06l-31.31,16.9v0c-0.8,0.44-1.34,1.22-1.46,2.12c-0.12,0.9,0.19,1.8,0.84,2.44
				l36.67,36.76l-20.21,20.21l-36.76-36.76c-0.65-0.61-1.54-0.88-2.41-0.74c-0.87,0.14-1.64,0.68-2.06,1.45l-16.99,31.31
				L234.98,235.05z"/>
		</g>
	</g>
	<g>
		<path class="st2" d="M266.32,532.64C119.47,532.64,0,413.17,0,266.32S119.47,0,266.32,0s266.33,119.47,266.33,266.32
			S413.17,532.64,266.32,532.64z M266.32,12.45c-139.98,0-253.87,113.89-253.87,253.87c0,139.99,113.89,253.88,253.87,253.88
			c139.99,0,253.88-113.89,253.88-253.88C520.2,126.34,406.31,12.45,266.32,12.45z"/>
	</g>
</g>
<g id="Camada_3">
</g>
<g id="Camada_2" class="st107">
</g>
</svg>
