<svg id="Camada_1" data-name="Camada 1" xmlns="http://www.w3.org/2000/svg" viewBox="0 0 415.59 490.53"><defs><style>.cls-1{fill:#fff;}.cls-2{fill:#030303;}</style></defs><polygon class="cls-1" points="196.34 116.99 213.45 131.43 222 146.53 209.17 228.81 215.93 240.46 245.63 266.58 262.2 353.26 254.26 445.14 191.85 436.94 169.96 350.97 174.5 263.83 138.24 190.91 154.07 149.82 196.34 116.99"/><path class="cls-1" d="M282.7,191l-5.95,1a2.76,2.76,0,0,1-3.19-2.25l-3.9-22.64a2.76,2.76,0,0,1,2.25-3.19l5.95-1"/><path class="cls-2" d="M276.28,194.36a5,5,0,0,1-5-4.18l-3.91-22.65a5,5,0,0,1,4.11-5.81l6-1,.78,4.49-6,1a.48.48,0,0,0-.39.56l3.9,22.65a.49.49,0,0,0,.2.31.47.47,0,0,0,.36.08l6-1,.77,4.49-6,1A4.89,4.89,0,0,1,276.28,194.36Z"/><path class="cls-2" d="M256.47,485.15a299.13,299.13,0,0,1-.71-46.66,10,10,0,0,0,0-1.56c-.22-.7-56.34-14.84-70.91-17.43h0a173.43,173.43,0,0,1-18.79,37.81l-20.43,30.95h111.1S256.65,487.06,256.47,485.15Z"/><path class="cls-2" d="M259.27,490.53H141.44l22.76-34.48a171.35,171.35,0,0,0,18.55-37.31l.64-1.82,1.9.34c7.61,1.35,26.16,5.77,41,9.45,31.12,7.74,31.21,8,31.69,9.53a6.2,6.2,0,0,1,.06,2.39,297.09,297.09,0,0,0,.71,46.3ZM149.9,486H254.27l-.06-.61a301.8,301.8,0,0,1-.73-46.86c-8.37-2.54-51.82-13.43-67.1-16.42A175.44,175.44,0,0,1,168,458.56Z"/><path class="cls-1" d="M233.94,256.31c15.58,12.66,36.92,34.09,38.48,41.09,3.74,16.84-5.34,31.36-9.1,50-4.77,23.71-7.13,47.38-7.31,56.26,0,0-.2,21.75-.21,33.23"/><path class="cls-2" d="M258.08,436.94h-4.56c0-11.36.21-33,.21-33.25.2-9.34,2.61-33.07,7.36-56.69a164.26,164.26,0,0,1,4.85-17.56c3.56-11.18,6.63-20.83,4.26-31.53-1.24-5.56-20.26-25.66-37.7-39.82l2.87-3.54c13.08,10.63,37.38,33.87,39.27,42.37,2.64,11.9-.76,22.59-4.36,33.9a158.86,158.86,0,0,0-4.73,17.07c-4.69,23.36-7.08,46.73-7.27,55.86C258.28,403.93,258.09,425.59,258.08,436.94Z"/><path class="cls-1" d="M174.75,229.75a68.4,68.4,0,0,1-3.71,6.66A108.33,108.33,0,0,0,157.86,318a179.71,179.71,0,0,0,8.39,26.11C176.34,368.71,183,397,183,397s4.11,16.74,1.93,22.47"/><path class="cls-2" d="M187,420.31l-4.25-1.62c1.4-3.69-.49-14.91-2-21.12-.07-.31-6.7-28.46-16.6-52.65a180.78,180.78,0,0,1-8.5-26.44,109.85,109.85,0,0,1,13.45-83.25,69.51,69.51,0,0,0,3.58-6.42l4.14,1.89a71.5,71.5,0,0,1-3.84,6.9,105.4,105.4,0,0,0-12.91,79.82,177.37,177.37,0,0,0,8.29,25.78c10,24.53,16.75,53,16.82,53.31C185.61,398.27,189.38,414.09,187,420.31Z"/><line class="cls-1" x1="303.25" y1="256.72" x2="290.82" y2="184.62"/><rect class="cls-2" x="294.76" y="184.09" width="4.55" height="73.16" transform="translate(-33.18 53.69) rotate(-9.78)"/><rect class="cls-1" x="280.85" y="153.83" width="43.69" height="38.96" rx="2.76" transform="translate(-25.05 53.96) rotate(-9.78)"/><path class="cls-2" d="M286.73,198.06a5,5,0,0,1-5-4.18l-5.68-32.95a5,5,0,0,1,4.1-5.82l37.62-6.49a5,5,0,0,1,5.82,4.11l5.68,33a5,5,0,0,1-4.1,5.82L287.59,198A5.07,5.07,0,0,1,286.73,198.06Zm31.94-45h-.08L281,159.6a.48.48,0,0,0-.4.56l5.68,33a.48.48,0,0,0,.56.39L324.43,187a.49.49,0,0,0,.4-.56l-5.69-32.95A.48.48,0,0,0,318.67,153.1Z"/><path class="cls-1" d="M320.92,150.4,395,108.32a3.11,3.11,0,0,1,4.6,2.15l13.63,77.59a3.1,3.1,0,0,1-3.08,3.66l-82.64-2.93Z"/><path class="cls-2" d="M410.2,194h0l-84.55-3-7.21-41.79,75.5-42.87a5.38,5.38,0,0,1,8,3.72l13.64,77.61a5.32,5.32,0,0,1-1.18,4.41A5.38,5.38,0,0,1,410.2,194Zm-80.73-7.42,80.79,2.87h0a.79.79,0,0,0,.58-.3.84.84,0,0,0,.18-.69l-13.64-77.6a.78.78,0,0,0-.46-.59.81.81,0,0,0-.77,0l-72.72,41.29Z"/><path class="cls-1" d="M318.05,345.22a108.61,108.61,0,0,0-11.85-9.11c-.91-.61-62.85-47.3-84.12-63.78-6.3-4.89-15.74-9.68-23.63-8.51-12.26,1.81-16.26,10.53-16.81,20-.85,14.42,6.84,28,19.25,35.42l109,64.94a26.18,26.18,0,0,0,22.27,2.39h0a17.2,17.2,0,0,0,9.26-9.82c4.62-12.92,1-33.58-2.23-51.06-3.37-18.33-13.87-65-14-76.45s-24.66-11.5-24-1.15c0,0,2.38,56.66,5,88.05"/><path class="cls-2" d="M323.63,390.3a29.25,29.25,0,0,1-14.95-4.2l-109-64.93a41,41,0,0,1-20.37-37.52c.75-12.74,7.24-20.38,18.75-22.09,10.76-1.59,22.14,6.47,25.37,9,18.81,14.58,66,50.22,80.06,60.75-2.42-31.76-4.57-82.59-4.59-83.13a8.18,8.18,0,0,1,4.09-7.56c4.82-3.09,13.2-3.2,18.68-.23,3.68,2,5.72,5.13,5.75,8.84.06,7.86,5.32,33.56,9.55,54.2,1.81,8.83,3.38,16.46,4.37,21.85,3,16.22,7.06,38.43,2.13,52.24A19.51,19.51,0,0,1,333,388.62l-.15.06A26.91,26.91,0,0,1,323.63,390.3ZM201,265.91a14.12,14.12,0,0,0-2.17.16c-9.38,1.39-14.25,7.22-14.87,17.85a36.42,36.42,0,0,0,18.15,33.34l109,64.93a23.77,23.77,0,0,0,20.25,2.24,14.91,14.91,0,0,0,8-8.47c4.53-12.66.57-34.18-2.32-49.89-1-5.34-2.61-13.31-4.34-21.75-4.28-20.84-9.59-46.78-9.66-55.09,0-2-1.14-3.67-3.36-4.87-4-2.18-10.6-2.15-14.05.06-2.15,1.38-2,3-2,3.49s2.36,55.73,4.89,86.93a109.37,109.37,0,0,1,11.18,8.68l-3,3.4a107.12,107.12,0,0,0-11.6-8.92c-1.45-1-64.07-48.23-84.25-63.87C215.36,270,207.64,265.91,201,265.91Z"/><path class="cls-1" d="M301.32,250.89s-6.69-25.81-11.75-38.91c-1.4-3.63,4.12-10.09,5.86-8.78s5.19,6.8,6.23,6.41c7.27-2.74,14.57-15.24,18.15-16.27s8,3.21,6.32,6.59a6.38,6.38,0,0,1,5.65,1c3,2,1,6.46,1,6.46s4.17-1.94,5.38,1.7-.42,4.86-.42,4.86,2.63-.78,4.28,2.52c1.48,3-1.2,7-3.73,11.44-5.84,10.21-13.85,12.35-13.1,21.31C325.63,254.46,299.55,256.86,301.32,250.89Z"/><path class="cls-2" d="M309.55,256.66c-3.81,0-7.25-.6-9-2.06A4,4,0,0,1,299,251c-1-3.65-7-26.34-11.53-38.17-1.46-3.8,1.62-8.74,4.41-10.86,2.55-1.93,4.3-1,4.93-.57a21.8,21.8,0,0,1,3.18,3.49c.52.64,1.29,1.6,1.84,2.19,3.38-1.73,7-5.89,10-9.29,3.34-3.82,5.33-6,7.4-6.61a7.79,7.79,0,0,1,7.9,2.8,7.31,7.31,0,0,1,1.63,3.48,9.23,9.23,0,0,1,4.35,1.61,6.16,6.16,0,0,1,2.64,5.57,5.51,5.51,0,0,1,1.69.42,5.24,5.24,0,0,1,2.92,3.33,9.22,9.22,0,0,1,.54,3.77,6.88,6.88,0,0,1,3.19,3.31c1.89,3.78-.51,7.93-3.06,12.33l-.73,1.25a47.69,47.69,0,0,1-7.54,9.64c-3.39,3.57-5.63,5.93-5.26,10.36.11,1.33-.39,3.24-3.41,4.82S314.89,256.66,309.55,256.66Zm-6-5.45c.95.58,4.35,1.26,9.8.71,5.66-.58,8.88-2,9.53-2.75-.43-6.32,3-9.88,6.52-13.65a43.94,43.94,0,0,0,6.89-8.75l.74-1.29c1.83-3.16,3.72-6.42,2.93-8-.68-1.37-1.4-1.39-1.67-1.34a2.13,2.13,0,0,1-2.7-1,2.36,2.36,0,0,1,.6-2.84,3.59,3.59,0,0,0-.2-2.46c-.17-.48-.34-.56-.4-.59a3.06,3.06,0,0,0-1.88.24,2.3,2.3,0,0,1-2.55-.47,2.25,2.25,0,0,1-.47-2.53s1.13-2.73-.21-3.65a4.27,4.27,0,0,0-3.59-.74,2.29,2.29,0,0,1-2.47-.65,2.25,2.25,0,0,1-.34-2.51c.4-.8-.23-1.7-.52-2.05a3.36,3.36,0,0,0-3.14-1.32c-.92.3-3.41,3.15-5.23,5.23-3.58,4.1-8,9.2-12.74,11-2.15.81-3.7-1.11-6-4-.56-.7-1.27-1.57-1.81-2.16a9.19,9.19,0,0,0-2.45,3.15,3.55,3.55,0,0,0-.47,2.46c5,13.07,11.55,38.1,11.82,39.16A2.22,2.22,0,0,1,303.57,251.21Zm-2.25-.32,2.18.65h0Zm35.07-38.78h0Zm0,0Z"/><path class="cls-1" d="M220,344.4c-11.9-7.13-44.61-28.15-50.32-46.69-7-22.74,5.73-30.68,17.17-36.27,10.54-5.16,35.89,6.11,61.25,25.75l14.28,9.44s1.39,6.68-7.75,25.41S233.17,350.8,231.87,351,220,344.4,220,344.4Z"/><path class="cls-2" d="M231.81,353.26c-.94,0-3.21-.67-13-6.92-13.49-8.1-45.44-28.94-51.3-48-8-26.09,9.13-34.48,18.35-39,13.58-6.64,42.72,9.81,63.57,25.95l15,9.91.19.92c.16.76,1.28,8-7.93,26.86-9.08,18.61-21.92,29.86-24.52,30.2A3.06,3.06,0,0,1,231.81,353.26Zm-.66-4.43Zm1-.1Zm-39-86.27a11.9,11.9,0,0,0-5.25,1c-11.58,5.66-22.36,12.92-16,33.56,5.55,18,39.15,39.31,49.32,45.41l.05,0a114.32,114.32,0,0,0,10.39,6.06c2.5-1.76,12.85-10.85,21-27.5,6.77-13.89,7.55-20.86,7.59-23.14L246.7,289C225.61,272.66,204.62,262.46,193.1,262.46Z"/><path class="cls-1" d="M172.72,217c5.48,8.78,27.29,39.89,61.22,39.27-10.82-8.81-19.57-16.18-19.78-18.74-.54-6.55,7.93-25.73,7.93-25.73"/><path class="cls-2" d="M232.94,258.6c-34.3,0-56.21-30.83-62.15-40.36l3.86-2.41c5.28,8.47,23.86,34.72,52.56,37.9-11.65-9.67-15.1-13.36-15.32-16-.57-6.93,7.23-24.82,8.12-26.84l4.16,1.84c-2.28,5.15-8.08,19.55-7.75,24.53.94,2.59,13.1,12.48,19,17.26l4.82,3.92-6.22.12Z"/><path class="cls-1" d="M196.34,207.73c14.3,5.32,34.73,8.47,37.6,7.37,3.67-1.41,7.54-3.22,6.49-10l-5.59-27.41a48.91,48.91,0,0,0-1.69-6.34c-.66-1.88-1.3-4.64-.07-6,2-2.14,8.88-12.75,5.57-13.5-7.68-1.72-16.19-5.09-18.22-6.73s-2.28-6.58-5.88-12.22-13.74-12.38-13.74-12.38"/><path class="cls-2" d="M231.83,217.56c-7.31,0-24.41-3.28-36.29-7.7a2.28,2.28,0,0,1,1.59-4.27c14,5.21,33.41,8.08,36,7.37,3.61-1.39,5.77-2.59,5-7.49l-5.57-27.31a48.65,48.65,0,0,0-1.61-6c-1.31-3.76-1.18-6.54.4-8.26,1.75-1.9,5.19-7.6,5.78-10-7.26-1.75-15.72-5-18.18-7-1.48-1.21-2.16-3.09-3-5.46a34.73,34.73,0,0,0-3.36-7.3c-3.3-5.17-13-11.66-13.08-11.72a2.28,2.28,0,0,1,2.52-3.79c.43.29,10.58,7.08,14.39,13.06a38.19,38.19,0,0,1,3.82,8.21c.54,1.51,1.09,3.06,1.59,3.46,1.6,1.31,9.75,4.59,17.28,6.28a3.29,3.29,0,0,1,2.48,2.28c1.45,4.64-6.79,14.88-6.87,15s-.3,1.28.54,3.69a52.25,52.25,0,0,1,1.77,6.63l5.59,27.41c1.41,9-4.65,11.32-7.91,12.56A8.94,8.94,0,0,1,231.83,217.56Z"/><path class="cls-2" d="M177.76,191.73c-3.81.84-10,.81-16-5.24-6.94-7-11-16.38-4.36-21.3a11.42,11.42,0,0,1,1.72-1l.06-.05c5.62-3,11.57,2.93,11.57,2.93,7.94,11.56,21.49,4.13,20.51-22.58-.5-13.5,9.56-23.89,9.56-23.89C192.92,106.25,180,112,169,114.88a109.92,109.92,0,0,0-26.41,11.56s-4.23,1-13.27,11.27-12.2,47.08-10.21,67.83c1.6,16.56,8.83,23.57,2.68,48.91-2,8.13-7.72,22.33-4.05,29.85,6,12.21,23.64,41.18,36.75,36.51,20.94-7.46,2.48-44.73,24.81-57.57,26.87-15.45,16.95-34.74-1.09-71.4Z"/><path class="cls-2" d="M151.48,323.6c-16.88,0-35-36.63-35.79-38.3-3.28-6.73-.19-17.21,2.29-25.64.62-2.1,1.2-4.08,1.6-5.74,4.12-17,2-25.45-.15-34.41a92.28,92.28,0,0,1-2.58-13.75c-2-21,1.16-58.59,10.76-69.55,8-9.07,12.5-11.31,14-11.85a112.46,112.46,0,0,1,26.8-11.69c1.18-.31,2.38-.65,3.6-1,10.19-2.92,22.87-6.54,30.79,7.79l.81,1.47-1.17,1.21c-.09.09-9.38,9.9-8.93,22.22.69,18.87-5.53,27.73-11.58,29.73-4.59,1.52-9.41-.57-12.93-5.57-.76-.7-4.91-4.27-8.53-2.53l-.06,0-.3.15a9,9,0,0,0-1.38.83,5.61,5.61,0,0,0-2.44,4.29c-.28,3.73,2.42,8.93,7.06,13.58,5.2,5.21,10.43,5.38,13.91,4.61l.54-.12,2,.51,1.13,2.28c17.41,35.37,27.92,56.72-.48,73.05-10.24,5.89-11,17.85-11.82,29.41-.79,11.87-1.61,24.14-13.35,28.32A11.3,11.3,0,0,1,151.48,323.6Zm-8.34-195c-.4.14-4.36,1.71-12.11,10.56-8,9.12-11.82,43.63-9.65,66.11a87.8,87.8,0,0,0,2.47,13.11c2.33,9.51,4.54,18.5.16,36.56-.43,1.77-1,3.8-1.66,5.95-2.14,7.27-5.08,17.22-2.57,22.36,8.2,16.78,24.15,38.86,33.95,35.36,8.93-3.18,9.59-13,10.34-24.33.82-12.17,1.74-26,14.09-33.06,24.7-14.2,16.54-30.77-1.33-67.07-4,.56-10.49.13-16.7-6.1-5.62-5.64-8.76-12-8.37-17.13a10.16,10.16,0,0,1,4.28-7.61,12,12,0,0,1,1.85-1.14l.19-.12c7-3.82,14,3,14.28,3.32l.26.32c2.36,3.44,5.24,4.9,7.89,4,4.62-1.53,9-9.92,8.46-25.24-.42-11.59,6.26-20.89,9-24.23-6.16-9.57-15.19-7-24.73-4.25-1.26.35-2.49.71-3.71,1a108.26,108.26,0,0,0-25.76,11.28l-.36.23Z"/><path class="cls-2" d="M217.52,223.35s-20.46-9.57-22.37-13.83,25,6.92,25,6.92"/></svg>